<?xml version="1.0" standalone="no"?><!DOCTYPE svg PUBLIC "-//W3C//DTD SVG 1.1//EN" "http://www.w3.org/Graphics/SVG/1.1/DTD/svg11.dtd"><svg class="icon" width="200px" height="200.00px" viewBox="0 0 1024 1024" version="1.1" xmlns="http://www.w3.org/2000/svg"><path d="M828.1 849c-5.1 0-10.2-2-14.1-5.9L180.4 209.6c-7.8-7.8-7.8-20.5 0-28.3 7.8-7.8 20.5-7.8 28.3 0l633.6 633.6c7.8 7.8 7.8 20.5 0 28.3-3.9 3.9-9.1 5.8-14.2 5.8z" fill="#ffffff" /><path d="M194.5 849c-5.1 0-10.2-2-14.1-5.9-7.8-7.8-7.8-20.5 0-28.3L814 181.3c7.8-7.8 20.5-7.8 28.3 0 7.8 7.8 7.8 20.5 0 28.3L208.7 843.1c-3.9 4-9 5.9-14.2 5.9z" fill="#ffffff" /></svg>